<svg xmlns="http://www.w3.org/2000/svg" viewBox="0 0 38 38" style="enable-background:new 0 0 38 38" xml:space="preserve"><path d="M34.8 19c0 7.9-6.4 14.2-14.2 14.2S6.3 26.9 6.3 19c0-7.9 6.4-14.2 14.3-14.2 7.8 0 14.2 6.3 14.2 14.2z" style="fill:#fcfcfc;fill-opacity:.3"/><path d="M21.2 22.9c.2.2.5.2.7 0 .2-.2.2-.5 0-.7L18.7 19l3.2-3.2c.2-.2.2-.5 0-.7-.2-.2-.5-.2-.7 0l-3.5 3.5c-.2.2-.2.5 0 .7l3.5 3.6z" style="fill-rule:evenodd;clip-rule:evenodd;fill:#fcfcfc"/><path d="M20.5 6.2c7 0 12.8 5.7 12.8 12.8h3c0-8.7-7.1-15.8-15.8-15.8v3zM7.8 19c0-7 5.7-12.8 12.8-12.8v-3C11.8 3.2 4.8 10.3 4.8 19h3zm12.7 12.8c-7 0-12.8-5.7-12.8-12.8h-3c0 8.7 7.1 15.8 15.8 15.8v-3zm0 3c8.7 0 15.8-7.1 15.8-15.8h-3c0 7-5.7 12.8-12.8 12.8v3z" style="fill:#fcfcfc"/></svg>