<svg xmlns="http://www.w3.org/2000/svg" viewBox="0 0 38 38" style="enable-background:new 0 0 38 38" xml:space="preserve"><path d="M5 19c0-7.7 6.3-14 14-14s14 6.3 14 14-6.3 14-14 14S5 26.7 5 19z" style="fill:#fcfcfc;fill-opacity:.3"/><path d="M18.4 15.2c-.2-.2-.5-.2-.7 0-.2.2-.2.5 0 .7l3.1 3.1-3.1 3.1c-.2.2-.2.5 0 .7.2.2.5.2.7 0l3.4-3.4c.2-.2.2-.5 0-.7l-3.4-3.5z" style="fill-rule:evenodd;clip-rule:evenodd;fill:#fcfcfc"/><path d="M19 31.5c-6.9 0-12.5-5.6-12.5-12.5H3.6c0 8.5 6.9 15.4 15.4 15.4v-2.9zM31.5 19c0 6.9-5.6 12.5-12.5 12.5v2.9c8.5 0 15.4-6.9 15.4-15.4h-2.9zM19 6.5c6.9 0 12.5 5.6 12.5 12.5h2.9c0-8.5-6.9-15.4-15.4-15.4v2.9zm0-2.9C10.5 3.6 3.6 10.5 3.6 19h2.9c0-6.9 5.6-12.5 12.5-12.5V3.6z" style="fill:#fcfcfc"/></svg>